<svg xmlns="http://www.w3.org/2000/svg" viewBox="0 0 96 96">
  <ellipse cx="48" cy="78" rx="17" ry="8" fill="#11141a" opacity="0.26"/>
  <rect x="39" y="55" width="18" height="22" rx="6" fill="#f4f1e4" stroke="#2d3137" stroke-width="3"/>
  <rect x="34" y="48" width="28" height="15" rx="7" fill="#e0ddcf" stroke="#2d3137" stroke-width="3"/>
  <rect x="41" y="35" width="14" height="16" rx="5" fill="#d8c3aa" stroke="#2d3137" stroke-width="3"/>
  <path d="M31 54h8v16h-8zM57 54h8v16h-8z" fill="#f0ede0" stroke="#2d3137" stroke-width="3"/>
  <path d="M39 72h7v12h-7zM50 72h7v12h-7z" fill="#3c403f"/>
  <path d="M34 30l14-10 14 10v8H34z" fill="#d5d3cb" stroke="#2d3137" stroke-width="3"/>
  <rect x="43" y="21" width="10" height="5" rx="2" fill="#707881"/>
  <rect x="43" y="44" width="10" height="9" rx="3" fill="#778087" opacity="0.78"/>
  <circle cx="48" cy="43" r="2.4" fill="#7f8790"/>
</svg>
